<svg width="240" height="58" viewBox="0 0 240 58" fill="none" xmlns="http://www.w3.org/2000/svg">
<path d="M0 19.1934L19.045 0.000102997H240V40.8729L223.173 57.7036L0.0372373 57.6887L0 19.1934Z" fill="#FFF0F6"/>
<path d="M67.5411 14.584H64.8113C64.6822 14.584 64.5587 14.6356 64.4673 14.7277L61.7032 17.5133C61.6122 17.605 61.5605 17.73 61.5605 17.8596V43.0105C61.5605 43.2813 61.7785 43.501 62.0472 43.501H83.2147C83.3438 43.501 83.4674 43.4494 83.5588 43.3573L86.3229 40.5716C86.4139 40.4799 86.4651 40.355 86.4651 40.2249V38.7259C86.4651 38.4551 86.2476 38.2355 85.9788 38.2355H68.514C68.2453 38.2355 68.0278 38.0158 68.0278 37.745V15.0744C68.0278 14.8036 67.8098 14.584 67.5411 14.584Z" fill="#E72487"/>
<path d="M80.4907 14.7277L77.7266 17.5133C77.6352 17.605 77.584 17.73 77.584 17.86V19.3591C77.584 19.6299 77.8019 19.8495 78.0706 19.8495H90.8532C91.1219 19.8495 91.3394 20.0691 91.3394 20.3395V43.0105C91.3394 43.2813 91.5573 43.501 91.826 43.501H97.32C97.5887 43.501 97.8062 43.2813 97.8062 43.0105V20.3395C97.8062 20.0691 98.0241 19.8495 98.2928 19.8495H108.311C108.44 19.8495 108.564 19.7979 108.655 19.7058L111.419 16.9201C111.51 16.8284 111.562 16.7035 111.562 16.5734V15.0744C111.562 14.8036 111.344 14.584 111.075 14.584H80.8347C80.7057 14.584 80.5821 14.6356 80.4907 14.7277Z" fill="#E72487"/>
<path d="M153.761 38.9493V16.2783C153.761 16.0075 153.543 15.7883 153.275 15.7883H150.545C150.416 15.7883 150.292 15.8399 150.201 15.9315L147.437 18.7176C147.346 18.8093 147.294 18.9338 147.294 19.0635L147.253 44.7048H147.294H168.908C169.036 44.7048 169.16 44.6532 169.251 44.5611L172.015 41.7759C172.107 41.6838 172.158 41.5593 172.158 41.4292V39.9298C172.158 39.659 171.94 39.4398 171.671 39.4398H154.248C153.979 39.4398 153.761 39.2201 153.761 38.9493Z" fill="#E72487"/>
<path d="M123.188 31.6705H132.723C132.992 31.6705 133.209 31.4509 133.209 31.1801V26.8955C133.209 26.6247 132.992 26.405 132.723 26.405H123.188C122.92 26.405 122.702 26.1858 122.702 25.915V20.3305C122.702 20.0597 122.92 19.8401 123.188 19.8401H139.049C139.178 19.8401 139.302 19.7885 139.393 19.6964L142.164 16.9039C142.255 16.8122 142.307 16.6873 142.307 16.5576V15.065C142.307 14.7942 142.089 14.575 141.82 14.575H119.486C119.357 14.575 119.233 14.6266 119.142 14.7183L116.377 17.504C116.286 17.5961 116.235 17.7206 116.235 17.8507V43.0105C116.235 43.2813 116.453 43.501 116.722 43.501H139.056C139.185 43.501 139.309 43.4494 139.4 43.3573L142.164 40.5716C142.255 40.4799 142.307 40.355 142.307 40.2249V38.7259C142.307 38.4551 142.089 38.2355 141.82 38.2355H123.188C122.92 38.2355 122.702 38.0163 122.702 37.7455V32.161C122.702 31.8902 122.92 31.6705 123.188 31.6705Z" fill="#E72487"/>
<path d="M48.6413 32.4798C48.6413 32.7506 48.4233 32.9702 48.1546 32.9702H37.2594C36.8257 32.9702 36.6086 32.4418 36.9154 32.1331L47.8106 21.1526C48.1174 20.8438 48.6413 21.0626 48.6413 21.4993V32.4798ZM55.1081 40.2388V15.0742C55.1081 14.8034 54.8906 14.5838 54.6218 14.5838H47.0142C46.8851 14.5838 46.7616 14.6354 46.6702 14.7275L18.9681 42.6662C18.6617 42.975 18.8788 43.5029 19.3121 43.5029H25.4315C25.5606 43.5029 25.6846 43.4513 25.7756 43.3596L30.7177 38.379C30.8087 38.2869 30.9327 38.2353 31.0617 38.2353H48.1546C48.4233 38.2353 48.6413 38.4549 48.6413 38.7257V43.0104C48.6413 43.2812 48.8592 43.5008 49.1279 43.5008H51.8713C52.0003 43.5008 52.1239 43.4492 52.2153 43.3571L54.9655 40.5855C55.0569 40.4934 55.1081 40.3689 55.1081 40.2388Z" fill="#E72487"/>
<path fill-rule="evenodd" clip-rule="evenodd" d="M177.573 20.5411L183.338 14.731C183.438 14.6308 183.572 14.5745 183.713 14.5745H217.454C217.746 14.5745 217.984 14.8137 217.984 15.1084V38.0784C217.984 38.22 217.928 38.3556 217.829 38.4558L212.978 43.3443C212.878 43.4446 212.744 43.5008 212.603 43.5008H177.948C177.655 43.5008 177.418 43.2616 177.418 42.9669V20.9189C177.418 20.7769 177.474 20.6413 177.573 20.5411ZM195.953 29.5418V34.2316L194.009 36.1907H184.045V33.5552H191.901L192.986 32.4613V31.3013L191.97 30.2766H184.045L184.051 21.7358L186.522 21.7397L195.953 21.7265V23.5794L195.176 24.362H187.011V27.641H194.067L195.953 29.5418ZM206.865 28.2955H211.346V33.5555H211.35V34.2037L209.378 36.191H200.258L198.321 34.2387V24.2322L200.798 21.7396L208.995 21.7268V21.7396L208.998 21.7357L211.356 24.1111L211.346 24.1213V27.0388H208.379V25.1193L207.628 24.3623H202.173L201.287 25.2544V32.358L202.475 33.5555H207.821L208.379 32.9926V30.9311H205.459C205.296 30.9311 205.163 30.7976 205.163 30.6325V30.1344C205.163 30.0551 205.194 29.9792 205.25 29.9233L206.865 28.2955Z" fill="#E72487"/>
</svg>
